<?xml version="1.0" standalone="no"?>
<!DOCTYPE svg PUBLIC "-//W3C//DTD SVG 20010904//EN"
 "http://www.w3.org/TR/2001/REC-SVG-20010904/DTD/svg10.dtd">
<svg version="1.0" xmlns="http://www.w3.org/2000/svg"
 width="144.000000pt" height="144.000000pt" viewBox="0 0 144.000000 144.000000"
 preserveAspectRatio="xMidYMid meet">

<g transform="translate(0.000000,144.000000) scale(0.100000,-0.100000)"
fill="#000000" stroke="none">
<path d="M484 828 c-47 -22 -56 -86 -19 -123 49 -50 135 -17 135 51 0 63 -59
100 -116 72z"/>
<path d="M870 812 c-37 -37 -39 -74 -5 -107 30 -31 73 -32 109 -4 51 40 26
122 -41 135 -27 5 -37 1 -63 -24z"/>
<path d="M610 633 c-28 -10 -50 -36 -50 -58 0 -33 52 -98 107 -133 63 -40 81
-35 159 42 45 46 54 60 54 91 0 32 -4 38 -35 51 -34 14 -202 19 -235 7z"/>
</g>
</svg>
