<?xml version="1.0" standalone="no"?>
<!DOCTYPE svg PUBLIC "-//W3C//DTD SVG 20010904//EN"
 "http://www.w3.org/TR/2001/REC-SVG-20010904/DTD/svg10.dtd">
<svg version="1.0" xmlns="http://www.w3.org/2000/svg"
 width="225.000000pt" height="225.000000pt" viewBox="0 0 225.000000 225.000000"
 preserveAspectRatio="xMidYMid meet">

<g transform="translate(0.000000,225.000000) scale(0.100000,-0.100000)"
fill="#000000" stroke="none">
<path d="M748 1295 c-58 -33 -77 -128 -36 -180 47 -60 132 -67 187 -16 53 50
51 129 -4 181 -31 29 -108 37 -147 15z"/>
<path d="M1372 1290 c-67 -41 -78 -133 -22 -188 76 -77 210 -25 210 80 0 104
-100 162 -188 108z"/>
<path d="M946 990 c-47 -15 -66 -39 -66 -83 0 -57 25 -101 92 -161 74 -67 136
-101 169 -93 37 10 142 90 185 142 34 42 39 54 39 103 0 48 -3 57 -28 76 -26
19 -42 21 -195 23 -92 1 -180 -2 -196 -7z"/>
</g>
</svg>
